<svg width="14" height="14" viewBox="0 0 14 14" fill="none" xmlns="http://www.w3.org/2000/svg">
<path fill-rule="evenodd" clip-rule="evenodd" d="M6.9987 0.333984C3.31203 0.333984 0.332031 3.31398 0.332031 7.00065C0.332031 10.6873 3.31203 13.6673 6.9987 13.6673C10.6854 13.6673 13.6654 10.6873 13.6654 7.00065C13.6654 3.31398 10.6854 0.333984 6.9987 0.333984ZM6.9987 12.334C4.0587 12.334 1.66536 9.94065 1.66536 7.00065C1.66536 4.06065 4.0587 1.66732 6.9987 1.66732C9.9387 1.66732 12.332 4.06065 12.332 7.00065C12.332 9.94065 9.9387 12.334 6.9987 12.334ZM6.9987 6.06065L9.39203 3.66732L10.332 4.60732L7.9387 7.00065L10.332 9.39398L9.39203 10.334L6.9987 7.94065L4.60536 10.334L3.66536 9.39398L6.0587 7.00065L3.66536 4.60732L4.60536 3.66732L6.9987 6.06065Z" fill="#CD4750"/>
</svg>
