<svg width="16" height="16" viewBox="0 0 16 16" fill="none" xmlns="http://www.w3.org/2000/svg">
<path fill-rule="evenodd" clip-rule="evenodd" d="M9.66536 2L10.332 2.66667H12.6654V4H3.33203V2.66667H5.66536L6.33203 2H9.66536ZM7.99871 8.39333L9.41204 6.98L10.352 7.92L8.93871 9.33333L10.352 10.7467L9.41204 11.6867L7.99871 10.2733L6.58538 11.6867L5.64538 10.7467L7.05871 9.33333L5.63871 7.92L6.57871 6.98L7.99871 8.39333ZM3.9987 12.6667C3.9987 13.4 4.5987 14 5.33203 14H10.6654C11.3987 14 11.9987 13.4 11.9987 12.6667V4.66667H3.9987V12.6667ZM10.6654 6H5.33203V12.6667H10.6654V6Z" fill="#D54F58"/>
</svg>
