<svg width="22" height="22" viewBox="0 0 22 22" fill="none" xmlns="http://www.w3.org/2000/svg">
<title>Facebook</title>
<path d="M19.6429 0.997559H2.35714C1.73199 0.997559 1.13244 1.23459 0.690391 1.65651C0.248341 2.07843 0 2.65068 0 3.24737L0 19.746C0 20.3427 0.248341 20.9149 0.690391 21.3368C1.13244 21.7588 1.73199 21.9958 2.35714 21.9958H9.0971V14.8569H6.00335V11.4967H9.0971V8.93564C9.0971 6.02261 10.9141 4.41352 13.697 4.41352C15.0297 4.41352 16.4234 4.64038 16.4234 4.64038V7.49951H14.8878C13.3748 7.49951 12.9029 8.39569 12.9029 9.31483V11.4967H16.2805L15.7403 14.8569H12.9029V21.9958H19.6429C20.268 21.9958 20.8676 21.7588 21.3096 21.3368C21.7517 20.9149 22 20.3427 22 19.746V3.24737C22 2.65068 21.7517 2.07843 21.3096 1.65651C20.8676 1.23459 20.268 0.997559 19.6429 0.997559Z" fill="#F2F2F2"/>
</svg>
