<svg width="16" height="16" viewBox="0 0 16 16" fill="none" xmlns="http://www.w3.org/2000/svg">
<path fill-rule="evenodd" clip-rule="evenodd" d="M8 8.00065C9.28667 8.00065 10.3333 6.95398 10.3333 5.66732C10.3333 4.38065 9.28667 3.33398 8 3.33398C6.71333 3.33398 5.66667 4.38065 5.66667 5.66732C5.66667 6.95398 6.71333 8.00065 8 8.00065ZM3.33333 10.0007L3.33333 8.00065H5.33333V6.66732L3.33333 6.66732V4.66732L2 4.66732V6.66732H0L0 8.00065H2L2 10.0007H3.33333ZM8 9.16732C6.44 9.16732 3.33333 9.94732 3.33333 11.5007V12.6673L12.6667 12.6673V11.5007C12.6667 9.94732 9.56 9.16732 8 9.16732ZM8.00001 10.5007C6.80668 10.5007 5.45334 10.9473 4.89334 11.334L11.1067 11.334C10.5467 10.9473 9.19335 10.5007 8.00001 10.5007ZM9 5.66732C9 5.11398 8.55333 4.66732 8 4.66732C7.44667 4.66732 7 5.11398 7 5.66732C7 6.22065 7.44667 6.66732 8 6.66732C8.55333 6.66732 9 6.22065 9 5.66732ZM11.3333 8.00065C12.62 8.00065 13.6667 6.95398 13.6667 5.66732C13.6667 4.38065 12.62 3.33398 11.3333 3.33398C11.1733 3.33398 11.0133 3.34732 10.86 3.38065C11.3667 4.00732 11.6667 4.80065 11.6667 5.66732C11.6667 6.53398 11.3533 7.32065 10.8467 7.94732C11.0067 7.98065 11.1667 8.00065 11.3333 8.00065ZM14 11.5007C14 10.594 13.5467 9.88732 12.88 9.34732C14.3734 9.66066 16 10.374 16 11.5007L16 12.6673H14V11.5007Z" fill="#F2C94C"/>
</svg>
