<svg width="23" height="23" viewBox="0 0 23 23" fill="none" xmlns="http://www.w3.org/2000/svg">
<title>Instagram</title>
<path d="M11.0076 6.11469C7.88436 6.11469 5.36517 8.51917 5.36517 11.5002C5.36517 14.4812 7.88436 16.8856 11.0076 16.8856C14.1307 16.8856 16.6499 14.4812 16.6499 11.5002C16.6499 8.51917 14.1307 6.11469 11.0076 6.11469ZM11.0076 15.0014C8.98926 15.0014 7.33927 13.4312 7.33927 11.5002C7.33927 9.56908 8.98435 7.9989 11.0076 7.9989C13.0308 7.9989 14.6758 9.56908 14.6758 11.5002C14.6758 13.4312 13.0258 15.0014 11.0076 15.0014ZM18.1968 5.8944C18.1968 6.59278 17.6075 7.15054 16.8807 7.15054C16.149 7.15054 15.5647 6.58809 15.5647 5.8944C15.5647 5.20071 16.154 4.63826 16.8807 4.63826C17.6075 4.63826 18.1968 5.20071 18.1968 5.8944ZM21.9338 7.16929C21.8503 5.48662 21.4477 3.99613 20.1562 2.76811C18.8696 1.54009 17.308 1.15575 15.545 1.07138C13.7281 0.972951 8.28212 0.972951 6.46517 1.07138C4.70714 1.15106 3.14555 1.5354 1.85403 2.76342C0.562525 3.99144 0.164759 5.48194 0.0763667 7.1646C-0.0267577 8.89883 -0.0267577 14.0968 0.0763667 15.831C0.159848 17.5137 0.562525 19.0042 1.85403 20.2322C3.14555 21.4602 4.70223 21.8446 6.46517 21.9289C8.28212 22.0274 13.7281 22.0274 15.545 21.9289C17.308 21.8493 18.8696 21.4649 20.1562 20.2322C21.4428 19.0042 21.8454 17.5137 21.9338 15.831C22.037 14.0968 22.037 8.90351 21.9338 7.16929ZM19.5865 17.6918C19.2035 18.6105 18.462 19.3182 17.4946 19.6885C16.0459 20.2369 12.6084 20.1104 11.0076 20.1104C9.40667 20.1104 5.96428 20.2322 4.52054 19.6885C3.55804 19.3229 2.81653 18.6152 2.42859 17.6918C1.85403 16.3091 1.98662 13.0282 1.98662 11.5002C1.98662 9.97217 1.85895 6.68652 2.42859 5.30851C2.81162 4.38984 3.55313 3.68209 4.52054 3.31181C5.96919 2.76342 9.40667 2.88997 11.0076 2.88997C12.6084 2.88997 16.0508 2.76811 17.4946 3.31181C18.4571 3.6774 19.1986 4.38516 19.5865 5.30851C20.1611 6.69121 20.0285 9.97217 20.0285 11.5002C20.0285 13.0282 20.1611 16.3138 19.5865 17.6918Z" fill="#F2F2F2"/>
</svg>
