<svg width="22" height="22" viewBox="0 0 22 22" fill="none" xmlns="http://www.w3.org/2000/svg">
<title>LinkedIn</title>
<path d="M20.4287 0.997559H1.56653C0.702237 0.997559 0 1.67719 0 2.51149V20.4819C0 21.3162 0.702237 21.9958 1.56653 21.9958H20.4287C21.293 21.9958 22.0001 21.3162 22.0001 20.4819V2.51149C22.0001 1.67719 21.293 0.997559 20.4287 0.997559ZM6.64915 18.9961H3.38841V8.97502H6.65406V18.9961H6.64915ZM5.01878 7.60638C3.97279 7.60638 3.12814 6.79551 3.12814 5.80184C3.12814 4.80818 3.97279 3.99731 5.01878 3.99731C6.05986 3.99731 6.90942 4.80818 6.90942 5.80184C6.90942 6.8002 6.06477 7.60638 5.01878 7.60638ZM18.872 18.9961H15.6113V14.1215C15.6113 12.9591 15.5867 11.4639 13.9171 11.4639C12.2179 11.4639 11.9577 12.7294 11.9577 14.0371V18.9961H8.69693V8.97502H11.8251V10.3437H11.8693C12.3063 9.55622 13.372 8.7266 14.9581 8.7266C18.2582 8.7266 18.872 10.803 18.872 13.5028V18.9961Z" fill="#F2F2F2"/>
</svg>
