<svg width="16" height="16" viewBox="0 0 16 16" fill="none" xmlns="http://www.w3.org/2000/svg">
<path fill-rule="evenodd" clip-rule="evenodd" d="M3 8C3 4.68667 5.68667 2 9 2C12.3133 2 15 4.68667 15 8C15 11.3133 12.3133 14 9 14C7.62667 14 6.36 13.5333 5.34667 12.76L6.29333 11.8C7.06 12.34 7.99333 12.6667 9 12.6667C11.58 12.6667 13.6667 10.58 13.6667 8C13.6667 5.42 11.58 3.33333 9 3.33333C6.42 3.33333 4.33333 5.42 4.33333 8H6.33333L3.66667 10.6667L1 8H3ZM9 6.66667C9.73333 6.66667 10.3333 7.26667 10.3333 8C10.3333 8.73333 9.73333 9.33333 9 9.33333C8.26667 9.33333 7.66667 8.73333 7.66667 8C7.66667 7.26667 8.26667 6.66667 9 6.66667Z" fill="#F2C94C"/>
</svg>
