<svg width="22" height="22" viewBox="0 0 22 22" fill="none" xmlns="http://www.w3.org/2000/svg">
<title>Twitter</title>
<path d="M19.6419 0.997559H2.35617C1.05483 0.997559 -0.000976562 2.00529 -0.000976562 3.24737V19.746C-0.000976562 20.9881 1.05483 21.9958 2.35617 21.9958H19.6419C20.9432 21.9958 21.999 20.9881 21.999 19.746V3.24737C21.999 2.00529 20.9432 0.997559 19.6419 0.997559ZM17.2405 8.44069C17.2504 8.57192 17.2504 8.70785 17.2504 8.83909C17.2504 12.9028 14.0093 17.5852 8.08697 17.5852C6.26018 17.5852 4.56599 17.079 3.14188 16.2072C3.40215 16.2353 3.6526 16.2447 3.91777 16.2447C5.42536 16.2447 6.81018 15.7573 7.91509 14.9323C6.50081 14.9042 5.31242 14.0183 4.90483 12.7997C5.40081 12.87 5.84768 12.87 6.3584 12.7435C4.88518 12.4575 3.78027 11.2201 3.78027 9.72495V9.68746C4.20751 9.91712 4.7084 10.0577 5.23384 10.0765C4.79209 9.79602 4.42995 9.41554 4.17975 8.96899C3.92954 8.52245 3.79905 8.02372 3.79992 7.51733C3.79992 6.9455 3.95706 6.42054 4.23697 5.96589C5.82313 7.83136 8.20483 9.05001 10.8763 9.18125C10.4196 7.09549 12.0548 5.40344 14.0191 5.40344C14.9472 5.40344 15.7821 5.77372 16.3713 6.37367C17.0981 6.24243 17.7955 5.98464 18.4142 5.63311C18.1736 6.34555 17.6678 6.9455 16.9999 7.32515C17.6481 7.25953 18.2767 7.08611 18.8562 6.84707C18.4191 7.46108 17.8691 8.00478 17.2405 8.44069Z" fill="#F2F2F2"/>
</svg>
