<svg width="367" height="296" viewBox="0 0 367 296" fill="none" xmlns="http://www.w3.org/2000/svg">
<path fill-rule="evenodd" clip-rule="evenodd" d="M342.86 33.5116C341.011 15.7788 326.084 1.47816 309.397 1.4707C262.642 1.96017 215.865 4.14886 169.066 8.03677C166.44 8.25464 163.821 8.53221 161.197 8.76053L160.971 8.72769C156.546 9.1142 152.127 9.58726 147.703 10.0021C141.77 10.5602 135.835 11.1004 129.907 11.7123C128.621 11.8451 127.336 11.9496 126.053 12.0839L126.278 12.1122C93.7125 15.5345 61.1913 19.7572 28.7145 24.7803C12.0417 27.5634 -0.354697 44.2397 0.839416 62.2024C3.448 95.8132 7.84709 129.261 14.0179 162.404C19.6163 192.322 26.8496 221.911 35.6851 251.038C40.0779 264.767 55.376 275.246 70.086 274.994C110.984 273.9 151.485 271.562 191.587 267.98C231.636 264.431 271.603 259.635 311.721 253.575C326.132 251.274 339.2 238.322 341.096 224.141C344.73 194.143 346.727 163.969 347.08 133.753C347.43 100.289 346.022 66.8285 342.86 33.5116ZM330.529 219.082C328.811 232.432 316.666 244.535 303.214 246.705C265.735 252.375 228.383 256.831 190.899 260.159C153.347 263.485 115.558 265.654 77.3208 266.679C63.599 266.901 49.395 257.083 45.3888 244.165C37.3348 216.955 30.7812 189.323 25.7576 161.395C20.2347 130.677 16.3662 99.6848 14.1687 68.5521C13.1522 51.9877 24.7754 36.6454 40.1854 34.0384C83.3874 27.3181 126.653 22.1553 169.982 18.5499C173.366 18.2679 176.75 18.059 180.132 17.8038C188.452 17.1576 196.775 16.5294 205.095 15.9996C236.683 13.987 268.261 12.7972 299.83 12.4301C315.284 12.445 329.14 25.5622 330.991 41.9401C334.149 72.7781 335.675 103.761 335.563 134.76C335.417 162.938 333.737 191.087 330.529 219.082Z" fill="#113F59" stroke="#113F59"/>
<path fill-rule="evenodd" clip-rule="evenodd" d="M365.816 74.7568C365.123 60.3487 353.073 46.2794 338.799 42.7144C299.008 33.2025 259.28 24.985 219.616 18.0617C180.019 11.1415 140.096 5.429 99.845 0.924272C92.8903 0.411007 85.9325 1.87989 79.7791 5.16045C73.6256 8.44102 68.5288 13.3988 65.0799 19.4585L64.9306 19.4794C64.5366 20.2255 64.1843 20.9866 63.8604 21.7596C62.6111 24.8397 61.3916 27.9392 60.1796 31.0417L60.2721 31.0297C50.6685 55.7256 42.1022 81.0766 34.6554 107.52C25.6451 139.757 18.333 172.444 12.7494 205.447C9.94773 223.056 20.6515 240.735 36.7809 245.057C82.0637 256.672 127.812 266.652 174.026 274.998C220.341 283.355 266.979 290.058 313.94 295.107C330.761 296.726 347.077 283.819 350.562 266.156C356.748 233.019 361.167 199.576 363.802 165.97C366.134 135.625 366.806 105.175 365.816 74.7568ZM352.174 163.909C349.545 195.012 345.252 225.951 339.315 256.595C336.006 272.861 320.807 284.665 305.249 283.192C261.772 278.531 218.64 272.334 175.853 264.6C133.098 256.879 90.7568 247.661 48.8295 236.946C33.9121 232.936 23.9278 216.673 26.3742 200.385C31.321 169.782 37.8763 139.461 46.0129 109.548C53.4574 82.3582 62.3767 55.5937 72.7312 29.3733C73.326 27.9619 74.0396 26.6035 74.8642 25.3128C75.1134 24.9143 75.3955 24.5353 75.6642 24.1503C76.2881 23.2523 76.9593 22.388 77.6748 21.5612C78.0092 21.1761 78.339 20.7896 78.6928 20.421C79.5827 19.4923 80.5251 18.6154 81.5154 17.7946C81.7243 17.62 81.9109 17.423 82.1259 17.2544C88.9232 11.7759 97.5546 9.09569 106.26 9.76012C143.933 13.9788 181.166 19.3242 218.241 25.8082C255.371 32.2987 292.5 39.9894 329.627 48.8805C342.947 52.1993 354.127 65.3658 354.646 78.8755C355.376 107.243 354.551 135.63 352.174 163.908V163.909Z" fill="#C83846"/>
<path fill-rule="evenodd" clip-rule="evenodd" d="M335.593 91.9178C336.25 76.3726 325.742 62.1779 312.009 60.0693C273.517 54.6155 234.993 50.6231 196.436 48.0922C157.965 45.5722 119.516 44.5107 81.0874 44.9077C67.3835 45.2061 55.3961 57.8369 54.2199 73.197C52.2152 103.435 51.7063 132.157 52.6377 159.911C53.4898 186.008 55.694 212.043 59.2411 237.911C61.0771 250.129 72.0405 261.082 83.9085 262.833C116.969 267.351 149.883 270.779 182.835 273.129C215.884 275.501 249.183 276.799 282.733 277.024C294.823 276.978 307.185 267.654 310.535 255.714C317.249 230.353 322.634 204.659 326.669 178.736C331.11 149.966 334.089 120.99 335.593 91.9178Z" fill="#45B0AB"/>
<path fill-rule="evenodd" clip-rule="evenodd" d="M191.417 79.1665C146.567 79.1665 110.248 115.38 110.248 160C110.248 204.62 146.567 240.833 191.417 240.833C236.348 240.833 272.748 204.62 272.748 160C272.748 115.38 236.348 79.1665 191.417 79.1665ZM199.623 168.083V119.583H183.373V168.083H199.623ZM199.623 200.416V184.25H183.373V200.416H199.623ZM126.498 160C126.498 195.728 155.586 224.666 191.498 224.666C227.411 224.666 256.498 195.728 256.498 160C256.498 124.271 227.411 95.3332 191.498 95.3332C155.586 95.3332 126.498 124.271 126.498 160Z" fill="white"/>
</svg>
