<svg width="175" height="175" viewBox="0 0 175 175" fill="none" xmlns="http://www.w3.org/2000/svg">
<path fill-rule="evenodd" clip-rule="evenodd" d="M87.4994 29.166C71.3848 29.166 58.3327 42.2181 58.3327 58.3327C58.3327 74.4473 71.3848 87.4993 87.4994 87.4993C103.614 87.4993 116.666 74.4473 116.666 58.3327C116.666 42.2181 103.614 29.166 87.4994 29.166ZM102.812 58.3326C102.812 49.8743 95.9578 43.0201 87.4995 43.0201C79.0412 43.0201 72.187 49.8743 72.187 58.3326C72.187 66.791 79.0412 73.6451 87.4995 73.6451C95.9578 73.6451 102.812 66.791 102.812 58.3326ZM131.979 123.958C131.979 119.291 109.156 108.645 87.4995 108.645C65.8433 108.645 43.0203 119.291 43.0203 123.958V131.978H131.979V123.958ZM29.166 123.958C29.166 104.562 68.0306 94.791 87.4993 94.791C106.968 94.791 145.833 104.562 145.833 123.958V145.833H29.166V123.958Z" fill="#C2C2C2"/>
</svg>
